<svg xmlns="http://www.w3.org/2000/svg" enable-background="new 0 0 64 64" viewBox="0 0 64 64" id="globe">
  <path d="M60,25c0-7.581-2.733-14.796-7.714-20.458l0.128-0.128c0.781-0.781,0.781-2.047,0-2.828s-2.048-0.781-2.828,0l-5.099,5.1
		C40.303,3.143,34.898,1,29,1C15.766,1,5,11.767,5,25c0,0.521,0.023,1.036,0.055,1.549C5.022,26.695,5,26.844,5,27
		c0,0.285,0.061,0.554,0.169,0.8c0.561,4.803,2.543,9.175,5.517,12.687l-5.1,5.1c-0.781,0.781-0.781,2.047,0,2.828
		C5.976,48.805,6.488,49,7,49s1.024-0.195,1.414-0.586l0.128-0.128c3.656,3.216,7.959,5.49,12.591,6.7L18.84,59H18
		c-1.104,0-2,0.896-2,2s0.896,2,2,2h22c1.104,0,2-0.896,2-2s-0.896-2-2-2h-0.84l-2.294-4.014C50.162,51.495,60,39.376,60,25z
		 M35.772,6.205l-0.744,4.466c-0.096,0.574,0.063,1.162,0.436,1.609l3.354,4.026c0.491,0.589,0.586,1.412,0.243,2.099l-1.85,3.7
		c-0.065,0.131-0.116,0.268-0.151,0.409l-1.256,5.023C35.589,28.398,34.818,29,33.931,29C32.866,29,32,28.134,32,27.069V24
		c0-0.718-0.385-1.381-1.008-1.736l-5.019-2.868C25.373,19.053,25,18.41,25,17.719V13c0-0.468-0.164-0.921-0.463-1.28l-4.009-4.81
		C23.105,5.697,25.969,5,29,5C31.38,5,33.653,5.439,35.772,6.205z M17.058,8.994L21,13.724v3.995c0,2.122,1.145,4.096,2.988,5.149
		L28,25.161v1.908C28,30.34,30.661,33,33.931,33c2.727,0,5.093-1.848,5.754-4.492l1.203-4.81l1.752-3.504
		c1.054-2.108,0.76-4.64-0.749-6.449l-2.767-3.321l0.4-2.399C45.201,11.557,49,17.835,49,25c0,11.028-8.972,20-20,20
		c-0.808,0-1.6-0.062-2.383-0.156l0.959-2.398C27.857,41.742,28,41.001,28,40.243v-2.315c0-0.916-0.216-1.833-0.626-2.652
		l-1.499-2.997C24.864,30.256,22.832,29,20.571,29H19l-1.221-1.628C16.665,25.887,14.891,25,13.035,25H9
		C9,18.451,12.179,12.645,17.058,8.994z M9.403,29h3.632c0.604,0,1.182,0.289,1.544,0.772L16.4,32.2c0.378,0.503,0.971,0.8,1.6,0.8
		h2.571c0.736,0,1.397,0.409,1.727,1.067l1.499,2.997C23.93,37.331,24,37.63,24,37.928v2.315c0,0.247-0.046,0.488-0.138,0.717
		l-1.198,2.994C15.968,41.71,10.835,36.026,9.403,29z M13.514,43.314C17.697,46.857,23.102,49,29,49c13.234,0,24-10.767,24-24
		c0-5.898-2.143-11.303-5.685-15.486l2.139-2.139C53.684,12.276,56,18.483,56,25c0,14.888-12.112,27-27,27
		c-6.517,0-12.724-2.316-17.625-6.547L13.514,43.314z M32.839,56l1.714,3H23.446l1.714-3H32.839z"></path>
</svg>
